<?xml version="1.0" encoding="UTF-8"?>
<svg id="Calque_1" data-name="Calque 1" xmlns="http://www.w3.org/2000/svg" viewBox="0 0 595.28 253.32">
  <defs>
    <style>
      .cls-1 {
        stroke-width: 0px;
      }
    </style>
  </defs>
  <path class="cls-1" d="m336.34,108.09c2.51-1.93,5.06-3.8,7.51-5.8,5.57-4.57,10.96-9.37,16.65-13.77,4.52-3.5,9.88-4.64,15.44-3.19,2.96.77,5.72,2.33,8.58,3.53,1.09.46,2.19.89,3.28,1.33,7.11,2.84,12.93,7.78,19.29,11.85,9.76,6.25,19.96,11.53,31.62,13.23,2.5.37,5.06.62,7.59.55,8.27-.22,15.89,1.85,22.99,6.04,1.42.84,2.89,1.63,4.43,2.22,3.28,1.27,6.6,1.51,10.03.33,7.75-2.67,15.64-4.59,23.96-3.92,4.42.35,8.84.92,13.25.9,5.66-.03,11.31-.65,16.97-.82,1.3-.04,2.88.38,3.9,1.15,4.56,3.44,4.76,11.59-.92,14.53-.42.22-.8.5-1.23.71-5.17,2.55-7.85,6.72-8.38,12.45-.3,3.23-1.05,6.42-1.29,9.65-.17,2.28.14,4.59.3,6.88.42,6.14.66,12.24-.58,18.36-.52,2.55-.31,5.32-.03,7.94.44,4.11,2.88,6.8,6.63,8.5,3.54,1.61,6.48,3.94,7.49,7.98.78,3.11-.03,5.35-2.75,6.97-2.07,1.24-4.3,2.21-6.46,3.28-4.58,2.27-7.94,1.2-11.4-3.8-.78-1.12-.94-2.65-1.51-3.94-.22-.49-.81-1.17-1.22-1.16-2.81.06-5.34-.4-6.96-2.99-1.77-2.83-1.47-5.88-.83-8.94.28-1.33.7-2.62,1.11-3.92.36-1.15-.05-1.73-1.2-2.05-3.13-.87-6.16-.61-9.22.44-4.01,1.38-8.03,2.75-12.12,3.88-2.78.77-5.67,1.1-8.51,1.65-4.98.97-9.46-.53-13.81-2.73-1.84-.93-3.64-2-5.57-2.68-4.25-1.5-6.93-.46-9.27,3.45-1.21,2.03-2.37,4.1-3.38,6.23-2.84,6.03-7.57,8.97-14.17,9.64-8.15.82-16.14.17-24.16-1.19-2.89-.49-5.88-.6-8.83-.57-13.89.17-27.77.47-41.66.68-3.72.06-7.45.13-11.17-.07-6.05-.34-7.44-1.62-8.79-7.62-.55.24-1.1.4-1.55.71-.88.6-1.79,1.19-2.52,1.95-2.81,2.95-5.97,3.77-9.79,2.09-2.72-1.19-5.48-.27-8.18.25-2.2.43-4.25.44-6.38-.53-6.48-2.96-6.39-8.51-4.18-13.01,1.27-2.59,2.86-5.03,4.25-7.57,2.77-5.07,2.51-10.31.84-15.64-1.56-4.98-3.89-9.46-7.71-13.12-2.3-2.21-3.39-5.09-3.68-8.25-.21-2.29-.47-4.59-.53-6.89-.07-2.92.67-5.74,2.63-7.91,3.53-3.92,5.38-8.59,6.65-13.55,1.96-7.65,6.35-14.07,10.32-20.7,3.15-5.27,7.14-9.83,11.7-13.94,3.67-3.31,4.44-4.53,5.34-7.27-1.29.07-2.5-.02-3.66.21-4.57.93-9.12,1.94-13.67,2.98-1.26.29-2.47.77-3.71,1.16-3.26,1.02-4.8,3.52-4.47,6.64,1.18,11.15-3.46,20.49-9.14,29.37-6.36,9.94-8.81,20.63-7.83,32.26.21,2.47.51,4.95.57,7.42.06,2.7,1.19,4.74,3.22,6.41,2.84,2.33,4.4,5.3,4.68,9.01.19,2.57-.2,4.95-1.59,7.12-3.31,5.18-6.64,10.35-9.94,15.53-1.71,2.69-3.34,5.44-5.1,8.1-1.77,2.68-4.16,4.55-7.49,4.78-5.56.38-10.25-5.45-9.36-11.46.29-1.95.15-3.96.41-5.91.21-1.62.65-3.23,1.12-4.81,1.01-3.4.26-6.56-2.31-8.66-.65.72-1.4,1.38-1.95,2.18-2.49,3.62-5.71,6.46-9.38,8.79-3.74,2.38-7.49,4.75-11.28,7.04-4.81,2.89-10.06,5.26-15.62,3.81-5.97-1.56-12-1.93-18.04-2.4-3.79-.29-7.65.18-11.47.41-2.3.14-4.15,1.32-5.65,3-1.93,2.16-3.74,4.42-5.69,6.57-1.71,1.88-3.46,3.72-5.31,5.46-7.16,6.71-15.82,7.99-25.22,7.22-5.65-.46-9.74-2.95-13.1-7.35-1.74-2.28-3.95-4.23-6.13-6.12-5.86-5.08-8.36-11.43-7.64-19.1.37-3.92-.28-7.49-2.31-11.03-2.78-4.85-3.18-10.45-3.77-15.92-.06-.57-.07-1.15-.12-2.05-.81.56-1.45.93-2.02,1.4-1.77,1.47-3.61,2.89-5.25,4.5-3.99,3.88-8.46,7.04-13.56,9.22-3.32,1.42-4.62,3.9-4.25,7.34.7,6.46,1.28,12.94,2.26,19.36.92,6.04,4,10.82,9.55,13.74,2.46,1.29,4.9,2.63,7.46,3.69,1.46.6,1.98,1.47,1.62,2.82-.25.93-.64,2.03-1.34,2.6-4.07,3.32-8.52,5.19-13.94,3.53-1.37-.42-3.09-.37-4.47.05-5.07,1.55-10.12.9-15.1-.02-3.6-.67-6.56-2.9-9.02-5.66-1.4-1.57-1.72-3.4-.81-5.27.88-1.8,1.86-3.57,3-5.21,4.05-5.82,5.14-12.15,3.16-18.91-1.64-5.61-3.31-11.23-5.45-16.65-1.33-3.37-3.53-6.4-5.41-9.54-.27-.46-.87-.81-1.4-1.01-4.09-1.53-7.42-4.17-10.35-7.29-1.67-1.78-3.5-2.47-5.86-2.03-1.16.22-2.34.32-3.52.4-7.47.55-12.64-5.14-10.86-12.39,1.35-5.49.98-10.87-.48-16.11-1.17-4.19.68-7.01,3.89-8.63,4.89-2.47,10.12-4.02,15.62-4.27,2.81-.13,5.67.14,8.47.49,2.66.33,5.06.07,7.56-1.06,4.85-2.2,10.12-3.07,15.38-3.08,10.93-.03,21.48-2.23,32.02-4.7,6.32-1.48,11.84-4.73,17.35-7.93,8.03-4.65,15.84-9.68,23.94-14.19,8.1-4.5,16.79-7.7,25.99-9.08,4-.6,8.12-.5,12.19-.55,20.74-.25,41.49-.48,62.23-.64,3.53-.03,7.06.29,10.59.53,3.78.26,7.75,6.51,6.02,10.17-.81,1.71-.32,2.76,1.14,3.83,1.08.78,1.81,2.02,2.8,2.94,1.95,1.81,3.99,1.92,5.46-.29,2-3.01,3.55-6.35,5.11-9.63.83-1.75,1.24-3.69,1.92-5.51,1.19-3.18,3.4-5.39,6.63-6.44,4.55-1.47,9.12-2.88,13.7-4.24,5.18-1.54,10.1-3.64,14.73-6.44.15-.09.3-.19.45-.29,9.31-6.47,18.49.79,20.39,8.29,1.26,4.95.5,9.42-1.93,13.82-3.02,5.49-6.78,10.39-11.21,14.79-3.04,3.03-4.82,6.79-6.72,10.52.16.17.33.35.49.52Zm-55.03,6.38c-.09-.21-.18-.43-.27-.64-2.07-.64-4.12-1.31-6.2-1.9-2.03-.57-3.22-1.83-3.61-3.91-.53-2.82-2-4.32-4.8-4.55-3.11-.25-6.28-.62-9.35-.27-3.11.36-6.19,1.36-9.17,2.39-4,1.38-7.81,3.32-11.85,4.55-4.67,1.43-9.59,2.06-14.24,3.55-9.65,3.1-18.61,7.74-27.39,12.79-10.32,5.95-19.78,12.87-27.37,22.16-.34.42-.99.58-1.45.92-.78.57-1.72,1.04-2.24,1.8-.96,1.4-1.59,3.04-2.52,4.47-1.12,1.72-2.13,3.68-3.68,4.91-2.15,1.7-2.44,3.47-1.78,5.88,1.33,4.89,2.52,9.81,3.79,14.72.15.57.36,1.13.58,1.67.66,1.62,1.83,2.58,3.49,3.26,2.41.99,4.57.27,6.68-.6,4.15-1.71,8.33-2.05,12.65-.85,3.95,1.1,7.87.68,11.7-.49,12.97-3.96,26.23-5.86,39.79-5.97,6.6-.06,13.06-1.24,19.14-3.91,5.03-2.21,7.58-7.04,7.52-12.53-.04-3.92.04-8,1.05-11.75,1.94-7.23,4.75-14.22,6.85-21.41,1.4-4.81,4.03-8.23,8.48-10.52,1.62-.83,2.83-2.48,4.22-3.75Zm178.93,19.7c-.73-.21-1.12-.45-1.48-.41-3.52.34-7.1.41-10.53,1.17-5,1.12-9.86,2.88-14.84,4.11-2.01.49-4.22.56-6.29.34-3.45-.37-6.85-1.2-10.29-1.7-2.31-.34-4.61-.74-6.85.69-5.83,3.7-11.78,7.22-17.62,10.91-1.27.81-2.35,1.97-3.37,3.11-3.94,4.42-4.47,10.3-6.41,15.57-.13.35.75,1.5,1.28,1.59,1.61.27,3.28.27,4.93.27,4.34-.01,8.54.5,11.11,4.53,3.06,4.82,7.79,7.87,11.81,11.66.61.57,1.53,1.01,2.36,1.12,4.85.63,9.72,1.16,14.58,1.68.69.07,1.42-.1,2.11-.24,1.9-.4,2.86-1.5,2.91-3.46.09-3.73-.77-7.21-2.45-10.58-1.14-2.3-2.03-4.78-2.59-7.29-.69-3.13.27-5.69,3.24-7.54,2.07-1.29,3.83-3.11,5.59-4.84,3.41-3.35,6.6-6.93,10.12-10.15,3.05-2.78,6.45-5.18,9.66-7.78.99-.8,1.88-1.72,3.01-2.77Zm-73.77-2.85c-1.39-.39-2.24-.48-2.93-.86-1.53-.81-3.4-1.44-4.39-2.72-3.37-4.35-5.23-9.32-5.11-14.96.04-1.75-.22-3.54-.63-5.24-.16-.65-1.03-1.4-1.73-1.61-2.19-.68-4.44-1.17-6.69-1.63-.56-.11-1.38-.03-1.79.32-2.24,1.89-4.7,3.63-6.52,5.89-3.52,4.37-7.46,8.03-12.79,10.05-2.37.9-4.69,1.97-6.95,3.11-2.41,1.22-4.52,2.87-5.65,5.42-1.62,3.67-2.29,7.53-2.43,11.54-.14,4.01,1.56,6.77,5.32,8.02,3.06,1.01,6.21,1.79,9.35,2.49,6.2,1.39,12.48,1.61,18.11-1.68,6.77-3.95,13.3-8.33,19.77-12.75,1.87-1.27,3.18-3.35,5.05-5.39Zm-158.16-33.93c-.08-.24-.17-.49-.25-.73-.85.07-1.71.13-2.56.21-4.17.42-8.34.92-12.52,1.28-13.48,1.16-26.59,3.79-38.64,10.21-12.53,6.67-25.7,11.66-39.25,15.75-11.13,3.36-22.47,6-33.14,10.89-4.82,2.21-8.4,5.29-11.04,9.76-1.21,2.04-1.31,3.82.05,5.91,1.11,1.69,1.89,3.66,2.5,5.6.5,1.57,1.34,2,2.56,1.19,1.74-1.16,3.55-2.37,4.91-3.93,2.66-3.06,5.75-5.34,9.48-6.95,6.65-2.86,13.52-5.02,20.61-6.42,2.37-.47,3.55-1.62,4.38-3.72.34-.85,1.22-1.76,2.07-2.1,7.53-3.02,15.11-5.93,22.68-8.86,6.65-2.57,13.35-4.98,19.94-7.68,14.07-5.76,28.09-11.64,42.11-17.51,2.07-.87,4.06-1.92,6.09-2.89Zm247.76,84.58c1.19-.25,2.71-.48,4.19-.88,5.91-1.61,12.16-1.73,17.9-4.18,4.47-1.91,4.62-2.32,4.76-7.03.18-5.71.39-11.5,1.54-17.06.85-4.1-.64-6.37-3.48-8.53-.33-.25-.64-.53-.98-.76-1.95-1.36-4.17-1.84-6.41-1.32-3.56.82-7.04,2-10.58,2.9-4.83,1.24-7.41,4.6-9.26,8.98-1.51,3.57-3.49,6.95-5.28,10.41-.41.79-.95,1.5-1.33,2.3-1.5,3.17-1.19,4.75,1.5,7,1.86,1.56,3.13,3.4,3.24,5.86.06,1.42.83,1.97,2.09,2.11.59.07,1.18.11,2.1.2Z"/>
  <path class="cls-1" d="m332.9,32.82c-.29,3.55.6,6.9,1.97,10.11.73,1.73.41,3.16-.46,4.68-.66,1.16-1.32,2.36-1.7,3.63-1.15,3.83-3.04,5.46-6.93,6.04-3.66.55-7.27,1.64-11.03.77-1.66-.38-3.35-.69-5.04-.95-2.38-.37-3.97-1.67-4.89-3.86-1.87-4.47-3.62-9.02-1.18-13.78,2.36-4.6,5.33-8.66,10.85-9.92.71-.16,1.4-.85,1.88-1.47,1.66-2.11,3.73-2.87,6.39-2.56,1.37.16,2.82,0,4.2-.25,3.94-.73,6.17,1.08,6.07,5.09-.02.83-.08,1.65-.11,2.48Z"/>
  <path class="cls-1" d="m378.24,39.58c.23,7.32-2.43,13.16-6.7,18.4-4.14,5.09-13.1,1.95-14.38-3.32-.46-1.89-.71-3.83-1.24-5.7-.21-.74-.88-1.38-1.43-1.97-.63-.68-1.65-1.12-2.01-1.9-1.14-2.45-2.2-4.96-2.96-7.55-.26-.89.11-2.52.78-3.01,1.94-1.43,4.08-3.17,6.32-3.5,4.56-.66,9.26-1.63,13.87-.32,1.83.52,3.68,1.33,5.24,2.41,2.31,1.61,2.51,4.26,2.51,6.45Z"/>
</svg>